<?xml version="1.0" encoding="utf-8"?>
<!-- Generator: Adobe Illustrator 20.1.0, SVG Export Plug-In . SVG Version: 6.00 Build 0)  -->
<svg version="1.1" id="Laag_1" xmlns="http://www.w3.org/2000/svg" xmlns:xlink="http://www.w3.org/1999/xlink" x="0px" y="0px"
	 viewBox="0 0 284 49" style="enable-background:new 0 0 284 49;" xml:space="preserve">
<style type="text/css">
	.st0{fill:#F5C300;}
</style>
<g>
	<path class="st0" d="M0,1.2h13.8l19.6,32.3h0.1V1.2h10.2v46.5H30.4L10.3,14.6h-0.1v33.1H0V1.2z"/>
	<path class="st0" d="M76.8,0.1c14.4,0,24.9,9.5,24.9,24.3c0,14.9-10.5,24.3-24.9,24.3s-24.9-9.5-24.9-24.3
		C51.9,9.5,62.4,0.1,76.8,0.1z M76.8,39.4c8.7,0,14.3-6.3,14.3-14.9S85.4,9.5,76.8,9.5s-14.3,6.3-14.3,14.9
		C62.5,33.1,68.1,39.4,76.8,39.4z"/>
	<path class="st0" d="M132.6,12.6c-1.6-2.1-4.9-3-7.4-3c-2.9,0-6.8,1.3-6.8,4.8c0,8.4,21.2,3,21.2,19.3c0,10.3-8.3,15.3-17.8,15.3
		c-5.9,0-11.1-1.7-15.5-5.9l7.2-8c2.1,2.7,5.5,4.4,8.9,4.4c3.3,0,7-1.6,7-4.9c0-8.5-21.6-4-21.6-19.4c0-9.9,8.5-15.1,17.6-15.1
		c5.2,0,10.2,1.4,14.1,4.9L132.6,12.6z"/>
	<path class="st0" d="M187.4,29.7c0,11-6.6,19.1-19.4,19.1s-19.5-8.1-19.5-19.1V1.2h10.2v28.1c0,5.7,3.9,10,9.3,10
		c5.3,0,9.2-4.4,9.2-10V1.2h10.2L187.4,29.7L187.4,29.7z"/>
	<path class="st0" d="M228.1,13.3c-2-2.4-4.9-3.8-8.7-3.8c-7.7,0-13.3,6.3-13.3,14.9s5.7,14.9,13,14.9c4.1,0,7.4-1.8,9.5-5l8.5,6.4
		c-3.8,5.5-10.4,8.1-16.7,8.1c-14.4,0-24.9-9.5-24.9-24.3c0-14.9,10.5-24.3,24.9-24.3c5.1,0,11.7,1.7,15.6,6.8L228.1,13.3z"/>
	<path class="st0" d="M243.8,1.2h10.2v17.3h19.7V1.2H284v46.5h-10.2V27.6h-29.8l10.1,3.6v12.5L243.8,49V1.2z"/>
</g>
</svg>
