<?xml version="1.0" encoding="utf-8"?>
<!-- Generator: Adobe Illustrator 20.1.0, SVG Export Plug-In . SVG Version: 6.00 Build 0)  -->
<svg version="1.1" id="Laag_1" xmlns="http://www.w3.org/2000/svg" xmlns:xlink="http://www.w3.org/1999/xlink" x="0px" y="0px"
	 viewBox="0 0 318.3 83.4" style="enable-background:new 0 0 318.3 83.4;" xml:space="preserve">
<style type="text/css">
	.st0{fill:#F5C300;}
</style>
<title>NSC logo_Company_FC</title>
<path class="st0" d="M17.1,18.4h13.8l19.6,32.3h0.1V18.4h10.2v46.5H47.5L27.4,31.8h-0.1v33.1H17.1V18.4z M93.9,17.3
	c14.4,0,24.9,9.5,24.9,24.3c0,14.9-10.5,24.3-24.9,24.3S69,56.4,69,41.6C69,26.7,79.5,17.3,93.9,17.3z M93.9,56.6
	c8.7,0,14.3-6.3,14.3-14.9s-5.7-15-14.3-15S79.6,33,79.6,41.6C79.6,50.3,85.2,56.6,93.9,56.6z M149.7,29.8c-1.6-2.1-4.9-3-7.4-3
	c-2.9,0-6.8,1.3-6.8,4.8c0,8.4,21.2,3,21.2,19.3c0,10.3-8.3,15.3-17.8,15.3c-5.9,0-11.1-1.7-15.5-5.9l7.2-8c2.1,2.7,5.5,4.4,8.9,4.4
	c3.3,0,7-1.6,7-4.9c0-8.5-21.6-4-21.6-19.4c0-9.9,8.5-15.1,17.6-15.1c5.2,0,10.2,1.4,14.1,4.9C156.6,22.2,149.7,29.8,149.7,29.8z
	 M204.5,46.9c0,11-6.6,19.1-19.4,19.1s-19.5-8.1-19.5-19.1V18.4h10.2v28.1c0,5.7,3.9,10,9.3,10c5.3,0,9.2-4.4,9.2-10V18.4h10.2V46.9
	z M245.2,30.5c-2-2.4-4.9-3.8-8.7-3.8c-7.7,0-13.3,6.3-13.3,14.9s5.7,14.9,13,14.9c4.1,0,7.4-1.8,9.5-5l8.5,6.4
	c-3.8,5.5-10.4,8.1-16.7,8.1c-14.4,0-24.9-9.5-24.9-24.3c0-14.9,10.5-24.3,24.9-24.3c5.1,0,11.7,1.7,15.6,6.8L245.2,30.5z
	 M260.9,18.4h10.2v17.3h19.7V18.4h10.3v46.5h-10.2V44.8h-29.8l10.1,3.6v12.5l-10.3,5.3V18.4z"/>
</svg>
