<svg id="Laag_1" data-name="Laag 1" xmlns="http://www.w3.org/2000/svg" viewBox="0 0 318.25 83.41"><defs><style>.cls-1{fill:#1d1d1b}</style></defs><title>NSC logo_Company_FC</title><path class="cls-1" d="M265.1 256.89h9.71l13.79 22.54h.09v-22.54h7.15v32.43h-9.34l-14.15-23.09h-.09v23.09h-7.16zM319 256.07c10.12 0 17.5 6.64 17.5 17s-7.38 17-17.5 17-17.5-6.64-17.5-17 7.42-17 17.5-17zm0 27.49c6.09 0 10.08-4.4 10.08-10.44s-4-10.44-10.08-10.44-10 4.38-10 10.43 4 10.44 10 10.44zM358.28 264.82a6.92 6.92 0 0 0-5.18-2.15c-2 0-4.81.92-4.81 3.34 0 5.91 14.93 2.11 14.93 13.47 0 7.24-5.82 10.67-12.51 10.67a15.4 15.4 0 0 1-10.9-4.08l5.08-5.59a8 8 0 0 0 6.23 3.07c2.34 0 4.95-1.1 4.95-3.39 0-6-15.21-2.75-15.21-13.56 0-6.92 6-10.54 12.37-10.54a14.66 14.66 0 0 1 9.94 3.39zM396.74 276.82c0 7.65-4.67 13.33-13.65 13.33s-13.7-5.68-13.7-13.33v-19.93h7.15v19.65c0 4 2.75 7 6.55 7s6.51-3 6.51-7v-19.65h7.15zM425.4 265.32a7.65 7.65 0 0 0-6.14-2.66c-5.41 0-9.39 4.4-9.39 10.44s4 10.44 9.16 10.44a7.76 7.76 0 0 0 6.69-3.48l6 4.44a14.16 14.16 0 0 1-11.73 5.63c-10.12 0-17.5-6.64-17.5-17s7.37-17 17.5-17c3.62 0 8.2 1.24 10.95 4.76zM436.42 256.89h7.15V269h13.88v-12.11h7.15v32.43h-7.15v-14h-21l7.11 2.46v8.7l-7.15 3.75zM363.67 314.65a7.65 7.65 0 0 0-6.14-2.66c-5.41 0-9.39 4.4-9.39 10.44s4 10.44 9.16 10.44a7.76 7.76 0 0 0 6.7-3.47l6 4.44a14.16 14.16 0 0 1-11.73 5.63c-10.12 0-17.5-6.64-17.5-17s7.38-17 17.5-17c3.62 0 8.2 1.24 10.95 4.76zM390.17 305.4c10.12 0 17.5 6.64 17.5 17s-7.38 17-17.5 17-17.5-6.64-17.5-17 7.33-17 17.5-17zm0 27.49c6.09 0 10.08-4.4 10.08-10.44s-4-10.44-10.08-10.44-10.08 4.4-10.08 10.44 3.99 10.43 10.08 10.43zM413.37 306.22h10.81l7.47 21.16h.09l7.51-21.16H450v32.43h-7.15v-24.87h-.09l-8.52 24.87h-5.45l-8.2-24.87h-.09v24.87h-7.15zM458.71 306.22h12c6.73 0 12.32 2.15 12.32 9.85s-5.18 9.94-12 9.94h-5.22v12.64h-7.15zm7.15 13.78h4.76c2.52 0 5-.87 5-3.89 0-3.34-3.39-3.8-6.14-3.8h-3.66zM494.31 306.22h5.91l14.11 32.43h-8.06l-2.79-6.87h-12.6l-2.7 6.87h-7.88zm2.75 9.44l-3.94 10.08H501zM518.43 306.22h9.71l13.79 22.54h.07v-22.54h7.15v32.43h-9.34l-14.16-23.09h-.09v23.09h-7.15zM564 324.82l-12.18-18.6h8.89l6.87 12.14 7.28-12.14h8.47l-12.19 18.6v13.83H564z" transform="translate(-265.1 -256.07)"/></svg>